<svg height="512pt" viewBox="0 0 512 512" width="512pt" xmlns="http://www.w3.org/2000/svg"><path d="m421.390625 110.734375h-330.78125c-18.796875 0-34.03125 15.238281-34.03125 34.03125s15.234375 34.03125 34.03125 34.03125h330.78125c18.796875 0 34.03125-15.238281 34.03125-34.03125s-15.234375-34.03125-34.03125-34.03125zm0 0" fill="#5861c7"/><path d="m421.390625 42.675781h-330.78125c-18.796875 0-34.03125 15.234375-34.03125 34.03125 0 18.792969 15.234375 34.027344 34.03125 34.027344h330.78125c18.796875 0 34.03125-15.234375 34.03125-34.027344 0-18.796875-15.234375-34.03125-34.03125-34.03125zm0 0" fill="#6770e6"/><path d="m405.296875 0h-298.59375c-10.84375 0-19.640625 8.792969-19.640625 19.640625v3.398437c0 10.84375 8.792969 19.640626 19.640625 19.640626h298.59375c10.84375 0 19.640625-8.792969 19.640625-19.640626v-3.398437c0-10.847656-8.792969-19.640625-19.640625-19.640625zm0 0" fill="#69ebfc"/><path d="m405.296875 0h-298.59375c-10.84375 0-19.640625 8.792969-19.640625 19.640625v3.398437c0 1.136719.121094 2.242188.304688 3.328126 1.582031-9.261719 9.625-16.3125 19.335937-16.3125h298.59375c9.710937 0 17.753906 7.054687 19.335937 16.3125.1875-1.085938.304688-2.191407.304688-3.328126v-3.398437c0-10.847656-8.792969-19.640625-19.640625-19.640625zm0 0" fill="#a1f1fc"/><path d="m407.078125 512h-296.113281c-14.453125 0-26.933594-10.125-29.914063-24.269531l-60.996093-289.484375h477.9375l-60.996094 289.484375c-2.980469 14.144531-15.460938 24.269531-29.917969 24.269531zm0 0" fill="#ff8354"/><g fill="#e0734a"><path d="m410.246094 498h-302.445313c-12.378906 0-23.316406-7.128906-28.328125-17.769531l1.578125 7.5c2.980469 14.144531 15.460938 24.269531 29.914063 24.269531h296.113281c14.457031 0 26.9375-10.125 29.917969-24.269531l1.578125-7.5c-5.011719 10.640625-15.949219 17.769531-28.328125 17.769531zm0 0"/><path d="m82.8125 239.117188h34.035156c7.058594 0 12.78125 5.722656 12.78125 12.777343v8.207031c0 7.054688-5.722656 12.777344-12.78125 12.777344h-34.035156c-7.054688 0-12.777344-5.722656-12.777344-12.777344v-8.207031c0-7.054687 5.722656-12.777343 12.777344-12.777343zm0 0"/><path d="m162.410156 239.117188h34.035156c7.058594 0 12.777344 5.722656 12.777344 12.777343v8.207031c0 7.054688-5.71875 12.777344-12.777344 12.777344h-34.035156c-7.058594 0-12.78125-5.722656-12.78125-12.777344v-8.207031c0-7.054687 5.722656-12.777343 12.78125-12.777343zm0 0"/><path d="m242.007812 239.117188h34.03125c7.058594 0 12.78125 5.722656 12.78125 12.777343v8.207031c0 7.054688-5.722656 12.777344-12.78125 12.777344h-34.03125c-7.058593 0-12.78125-5.722656-12.78125-12.777344v-8.207031c0-7.054687 5.722657-12.777343 12.78125-12.777343zm0 0"/><path d="m321.601562 239.117188h34.035157c7.058593 0 12.777343 5.722656 12.777343 12.777343v8.207031c0 7.054688-5.71875 12.777344-12.777343 12.777344h-34.035157c-7.058593 0-12.78125-5.722656-12.78125-12.777344v-8.207031c0-7.054687 5.722657-12.777343 12.78125-12.777343zm0 0"/><path d="m401.199219 239.117188h34.03125c7.058593 0 12.78125 5.722656 12.78125 12.777343v8.207031c0 7.054688-5.722657 12.777344-12.78125 12.777344h-34.03125c-7.058594 0-12.78125-5.722656-12.78125-12.777344v-8.207031c0-7.054687 5.722656-12.777343 12.78125-12.777343zm0 0"/><path d="m93.066406 303.28125h30.800782c7.058593 0 12.78125 5.722656 12.78125 12.78125v8.203125c0 7.058594-5.722657 12.78125-12.78125 12.78125h-30.800782c-7.058594 0-12.78125-5.722656-12.78125-12.78125v-8.203125c0-7.058594 5.722656-12.78125 12.78125-12.78125zm0 0"/><path d="m168.34375 303.28125h30.800781c7.058594 0 12.78125 5.722656 12.78125 12.78125v8.203125c0 7.058594-5.722656 12.78125-12.78125 12.78125h-30.800781c-7.058594 0-12.78125-5.722656-12.78125-12.78125v-8.203125c0-7.058594 5.722656-12.78125 12.78125-12.78125zm0 0"/><path d="m243.621094 303.28125h30.804687c7.054688 0 12.777344 5.722656 12.777344 12.78125v8.203125c0 7.058594-5.722656 12.78125-12.777344 12.78125h-30.804687c-7.058594 0-12.777344-5.722656-12.777344-12.78125v-8.203125c0-7.058594 5.71875-12.78125 12.777344-12.78125zm0 0"/><path d="m318.898438 303.28125h30.804687c7.058594 0 12.777344 5.722656 12.777344 12.78125v8.203125c0 7.058594-5.71875 12.78125-12.777344 12.78125h-30.804687c-7.054688 0-12.777344-5.722656-12.777344-12.78125v-8.203125c0-7.058594 5.722656-12.78125 12.777344-12.78125zm0 0"/><path d="m394.179688 303.28125h30.800781c7.058593 0 12.78125 5.722656 12.78125 12.78125v8.203125c0 7.058594-5.722657 12.78125-12.78125 12.78125h-30.800781c-7.058594 0-12.78125-5.722656-12.78125-12.78125v-8.203125c0-7.058594 5.722656-12.78125 12.78125-12.78125zm0 0"/><path d="m109.847656 367.449219h25.511719c7.054687 0 12.777344 5.722656 12.777344 12.777343v8.207032c0 7.054687-5.722657 12.777344-12.777344 12.777344h-25.511719c-7.058594 0-12.78125-5.722657-12.78125-12.777344v-8.207032c0-7.054687 5.722656-12.777343 12.78125-12.777343zm0 0"/><path d="m178.058594 367.449219h25.507812c7.058594 0 12.78125 5.722656 12.78125 12.777343v8.207032c0 7.054687-5.722656 12.777344-12.78125 12.777344h-25.507812c-7.058594 0-12.78125-5.722657-12.78125-12.777344v-8.207032c0-7.054687 5.722656-12.777343 12.78125-12.777343zm0 0"/><path d="m246.269531 367.449219h25.507813c7.058594 0 12.78125 5.722656 12.78125 12.777343v8.207032c0 7.054687-5.722656 12.777344-12.78125 12.777344h-25.507813c-7.058593 0-12.78125-5.722657-12.78125-12.777344v-8.207032c0-7.054687 5.722657-12.777343 12.78125-12.777343zm0 0"/><path d="m314.476562 367.449219h25.511719c7.058594 0 12.78125 5.722656 12.78125 12.777343v8.207032c0 7.054687-5.722656 12.777344-12.78125 12.777344h-25.511719c-7.054687 0-12.777343-5.722657-12.777343-12.777344v-8.207032c0-7.054687 5.722656-12.777343 12.777343-12.777343zm0 0"/><path d="m382.6875 367.449219h25.511719c7.058593 0 12.777343 5.722656 12.777343 12.777343v8.207032c0 7.054687-5.71875 12.777344-12.777343 12.777344h-25.511719c-7.058594 0-12.78125-5.722657-12.78125-12.777344v-8.207032c0-7.054687 5.722656-12.777343 12.78125-12.777343zm0 0"/><path d="m121.246094 431.613281h21.914062c7.058594 0 12.78125 5.722657 12.78125 12.777344v8.207031c0 7.054688-5.722656 12.777344-12.78125 12.777344h-21.914062c-7.054688 0-12.777344-5.722656-12.777344-12.777344v-8.207031c-.003906-7.054687 5.71875-12.777344 12.777344-12.777344zm0 0"/><path d="m184.65625 431.613281h21.914062c7.058594 0 12.78125 5.722657 12.78125 12.777344v8.207031c0 7.054688-5.722656 12.777344-12.78125 12.777344h-21.914062c-7.058594 0-12.78125-5.722656-12.78125-12.777344v-8.207031c0-7.054687 5.722656-12.777344 12.78125-12.777344zm0 0"/><path d="m248.066406 431.613281h21.914063c7.058593 0 12.78125 5.722657 12.78125 12.777344v8.207031c0 7.054688-5.722657 12.777344-12.78125 12.777344h-21.914063c-7.058594 0-12.78125-5.722656-12.78125-12.777344v-8.207031c0-7.054687 5.722656-12.777344 12.78125-12.777344zm0 0"/><path d="m311.476562 431.613281h21.914063c7.058594 0 12.78125 5.722657 12.78125 12.777344v8.207031c0 7.054688-5.722656 12.777344-12.78125 12.777344h-21.914063c-7.058593 0-12.78125-5.722656-12.78125-12.777344v-8.207031c0-7.054687 5.71875-12.777344 12.78125-12.777344zm0 0"/><path d="m374.882812 431.613281h21.917969c7.058594 0 12.777344 5.722657 12.777344 12.777344v8.207031c0 7.054688-5.71875 12.777344-12.777344 12.777344h-21.917969c-7.058593 0-12.777343-5.722656-12.777343-12.777344v-8.207031c0-7.054687 5.71875-12.777344 12.777343-12.777344zm0 0"/><path d="m500.722656 157.519531h-143.453125l-28.191406-40.179687c-4.167969-5.941406-10.964844-9.472656-18.214844-9.472656h-103.675781c-7.253906 0-14.050781 3.53125-18.21875 9.472656l-28.1875 40.179687h-149.503906c-6.226563 0-11.277344 5.046875-11.277344 11.277344v18.167969c0 6.230468 5.050781 11.28125 11.277344 11.28125h489.441406c6.230469 0 11.277344-5.050782 11.277344-11.28125v-18.167969c.003906-6.230469-5.046875-11.277344-11.273438-11.277344zm-300.304687 20.726563c-.742188 0-1.460938-.058594-2.164063-.152344-.234375-.03125-.457031-.085938-.6875-.128906-.457031-.085938-.917968-.171875-1.359375-.292969-.261719-.074219-.511719-.164063-.765625-.25-.390625-.132813-.777344-.269531-1.148437-.425781-.257813-.113282-.511719-.234375-.761719-.359375-.34375-.167969-.675781-.347657-1-.542969-.25-.148438-.496094-.300781-.734375-.464844-.300781-.199218-.585937-.414062-.867187-.636718-.234376-.183594-.472657-.367188-.695313-.5625-.253906-.226563-.492187-.464844-.730469-.707032-.21875-.222656-.445312-.441406-.652344-.675781-.199218-.226563-.378906-.46875-.5625-.707031-.214843-.273438-.4375-.539063-.632812-.824219-.054688-.085937-.101562-.179687-.160156-.265625-.5625-.863281-1.042969-1.78125-1.425782-2.734375-.027343-.074219-.0625-.140625-.089843-.210937-.171875-.441407-.304688-.902344-.4375-1.359376-.039063-.144531-.089844-.285156-.128907-.429687-.113281-.453125-.195312-.910156-.269531-1.371094-.023437-.15625-.050781-.3125-.074219-.46875-.058593-.46875-.09375-.9375-.109374-1.40625-.003907-.15625-.007813-.3125-.007813-.464843-.003906-.480469.015625-.960938.0625-1.445313.011719-.144531.03125-.285156.046875-.425781.0625-.5.140625-1 .25-1.496094.027344-.109375.058594-.214844.085938-.324219.132812-.53125.28125-1.0625.472656-1.585937.457031-1.242188 1.0625-2.460938 1.882812-3.628906l13.640625-19.441407c2.894531-4.128906 7.621094-6.585937 12.664063-6.585937h89.929687c5.042969 0 9.769531 2.457031 12.664063 6.585937l13.640625 19.441407c.820312 1.164062 1.425781 2.386718 1.882812 3.628906.195313.523437.34375 1.054687.472657 1.585937.027343.109375.0625.214844.085937.324219.113281.496094.1875.996094.25 1.496094.019531.140625.035156.28125.050781.425781.042969.480469.0625.960937.0625 1.445313 0 .15625-.003906.308593-.011718.464843-.015626.46875-.050782.9375-.109376 1.40625-.019531.15625-.046874.3125-.074218.46875-.074219.460938-.160156.917969-.269532 1.371094-.039062.144531-.085937.285156-.125.429687-.132812.457032-.269531.917969-.441406 1.359376-.023437.070312-.058594.136718-.089844.207031-.378906.953125-.859374 1.867187-1.417968 2.726562-.0625.09375-.109375.191407-.167969.28125-.195313.285157-.417969.546875-.628906.820313-.1875.238281-.367188.480468-.566407.710937-.207031.234375-.429687.453125-.652343.671875-.238281.242188-.476563.480469-.730469.707032-.222656.195312-.457031.378906-.691406.5625-.28125.222656-.570313.4375-.871094.640624-.238281.160157-.484375.316407-.730469.464844-.324219.191406-.660156.371094-1 .539063-.253906.125-.503906.25-.765625.359375-.371094.160156-.757812.296875-1.144531.425781-.253906.085937-.503906.179687-.765625.25-.445312.125-.902344.210937-1.363281.292969-.230469.042968-.449219.097656-.683594.132812-.703125.09375-1.425781.148438-2.167969.148438zm0 0"/></g><path d="m500.722656 157.519531h-143.453125l-28.191406-40.179687c-4.167969-5.941406-10.964844-9.472656-18.214844-9.472656h-103.675781c-7.253906 0-14.050781 3.53125-18.21875 9.472656l-28.1875 40.179687h-149.503906c-6.226563 0-11.277344 5.046875-11.277344 11.277344v10c0-6.230469 5.050781-11.277344 11.277344-11.277344h149.5l28.191406-40.179687c4.164062-5.941406 10.964844-9.472656 18.214844-9.472656h103.675781c7.253906 0 14.050781 3.53125 18.214844 9.472656l28.191406 40.179687h143.453125c6.230469 0 11.277344 5.046875 11.277344 11.277344v-10c.003906-6.230469-5.046875-11.277344-11.273438-11.277344zm0 0" fill="#ff8354"/><path d="m295.917969 131.066406h-71.878907c-2.027343 0-3.671874-1.644531-3.671874-3.675781v-19.539063c0-2.03125 1.644531-3.675781 3.671874-3.675781h71.878907c2.027343 0 3.675781 1.644531 3.675781 3.675781v19.539063c-.003906 2.03125-1.648438 3.675781-3.675781 3.675781zm0 0" fill="#ff8354"/><path d="m295.917969 104.179688h-71.878907c-2.027343 0-3.671874 1.640624-3.671874 3.671874v10c0-2.03125 1.644531-3.671874 3.671874-3.671874h71.878907c2.027343 0 3.675781 1.640624 3.675781 3.671874v-10c-.003906-2.03125-1.648438-3.671874-3.675781-3.671874zm0 0" fill="#ffac8c"/></svg>